<mxfile host="app.diagrams.net" modified="2024-06-27T14:11:19.973Z" agent="Mozilla/5.0 (X11; Linux x86_64) AppleWebKit/537.36 (KHTML, like Gecko) Chrome/126.0.0.0 Safari/537.36" etag="GHaBSEoR0dEhA8OOgE4Q" version="24.6.3" type="device">
  <diagram name="Pagina-1" id="GzbVnpT76C-ZIcmX6RsV">
    <mxGraphModel dx="2240" dy="1155" grid="1" gridSize="10" guides="1" tooltips="1" connect="1" arrows="1" fold="1" page="1" pageScale="1" pageWidth="1169" pageHeight="827" math="0" shadow="0">
      <root>
        <mxCell id="0" />
        <mxCell id="1" parent="0" />
        <mxCell id="LwxMLPN20SWtX-hT_mcb-1" value="0. seek information about document" style="rounded=0;whiteSpace=wrap;html=1;" parent="1" vertex="1">
          <mxGeometry x="524" y="40" width="120" height="40" as="geometry" />
        </mxCell>
        <mxCell id="LwxMLPN20SWtX-hT_mcb-3" value="1. select the metadata information" style="rounded=0;whiteSpace=wrap;html=1;" parent="1" vertex="1">
          <mxGeometry x="284" y="160" width="120" height="40" as="geometry" />
        </mxCell>
        <mxCell id="LwxMLPN20SWtX-hT_mcb-4" value="2. Select the expiration information" style="rounded=0;whiteSpace=wrap;html=1;" parent="1" vertex="1">
          <mxGeometry x="444" y="160" width="120" height="40" as="geometry" />
        </mxCell>
        <mxCell id="LwxMLPN20SWtX-hT_mcb-8" value="3. Select expiration dates" style="rounded=0;whiteSpace=wrap;html=1;" parent="1" vertex="1">
          <mxGeometry x="604" y="160" width="120" height="40" as="geometry" />
        </mxCell>
        <mxCell id="LwxMLPN20SWtX-hT_mcb-9" value="4. read the related information" style="rounded=0;whiteSpace=wrap;html=1;" parent="1" vertex="1">
          <mxGeometry x="764" y="160" width="120" height="40" as="geometry" />
        </mxCell>
        <mxCell id="LwxMLPN20SWtX-hT_mcb-30" value="" style="endArrow=none;html=1;rounded=0;exitX=0.5;exitY=0;exitDx=0;exitDy=0;entryX=0.5;entryY=1;entryDx=0;entryDy=0;edgeStyle=orthogonalEdgeStyle;" parent="1" source="LwxMLPN20SWtX-hT_mcb-3" target="LwxMLPN20SWtX-hT_mcb-1" edge="1">
          <mxGeometry width="50" height="50" relative="1" as="geometry">
            <mxPoint x="-36" y="150" as="sourcePoint" />
            <mxPoint x="14" y="100" as="targetPoint" />
          </mxGeometry>
        </mxCell>
        <mxCell id="LwxMLPN20SWtX-hT_mcb-31" value="" style="endArrow=none;html=1;rounded=0;entryX=0.5;entryY=1;entryDx=0;entryDy=0;exitX=0.5;exitY=0;exitDx=0;exitDy=0;edgeStyle=orthogonalEdgeStyle;" parent="1" source="LwxMLPN20SWtX-hT_mcb-4" target="LwxMLPN20SWtX-hT_mcb-1" edge="1">
          <mxGeometry width="50" height="50" relative="1" as="geometry">
            <mxPoint x="414" y="190" as="sourcePoint" />
            <mxPoint x="464" y="140" as="targetPoint" />
          </mxGeometry>
        </mxCell>
        <mxCell id="LwxMLPN20SWtX-hT_mcb-32" value="" style="endArrow=none;html=1;rounded=0;entryX=0.5;entryY=1;entryDx=0;entryDy=0;exitX=0.5;exitY=0;exitDx=0;exitDy=0;edgeStyle=orthogonalEdgeStyle;" parent="1" source="LwxMLPN20SWtX-hT_mcb-8" target="LwxMLPN20SWtX-hT_mcb-1" edge="1">
          <mxGeometry width="50" height="50" relative="1" as="geometry">
            <mxPoint x="464" y="190" as="sourcePoint" />
            <mxPoint x="434" y="110" as="targetPoint" />
          </mxGeometry>
        </mxCell>
        <mxCell id="LwxMLPN20SWtX-hT_mcb-33" value="" style="endArrow=none;html=1;rounded=0;entryX=0.5;entryY=1;entryDx=0;entryDy=0;exitX=0.5;exitY=0;exitDx=0;exitDy=0;edgeStyle=orthogonalEdgeStyle;" parent="1" source="LwxMLPN20SWtX-hT_mcb-9" target="LwxMLPN20SWtX-hT_mcb-1" edge="1">
          <mxGeometry width="50" height="50" relative="1" as="geometry">
            <mxPoint x="854" y="220" as="sourcePoint" />
            <mxPoint x="904" y="170" as="targetPoint" />
          </mxGeometry>
        </mxCell>
        <mxCell id="LwxMLPN20SWtX-hT_mcb-36" value="Plan 0: do 1, 2, 3, 4 in any order" style="text;html=1;align=center;verticalAlign=middle;whiteSpace=wrap;rounded=0;" parent="1" vertex="1">
          <mxGeometry x="604" y="90" width="179" height="30" as="geometry" />
        </mxCell>
      </root>
    </mxGraphModel>
  </diagram>
</mxfile>
